<?xml version="1.0" encoding="utf-8"?>
<!-- Generator: Adobe Illustrator 16.0.3, SVG Export Plug-In . SVG Version: 6.00 Build 0)  -->
<!DOCTYPE svg PUBLIC "-//W3C//DTD SVG 1.1//EN" "http://www.w3.org/Graphics/SVG/1.1/DTD/svg11.dtd">
<svg version="1.1" id="Capa_1" xmlns="http://www.w3.org/2000/svg" xmlns:xlink="http://www.w3.org/1999/xlink" x="0px" y="0px"
	 width="157.109px" height="33.66px" viewBox="0 0 157.109 33.66" enable-background="new 0 0 157.109 33.66" xml:space="preserve">
<g>
	<path fill="#1D7157" d="M15.759,33.66c-3.734-2.146-7.405-4.377-11.233-6.395c-1.606-0.848-2.101-1.768-2.048-3.344
		c0.146-4.246,0.06-8.5,0.04-12.75c-0.002-0.505,0.158-0.818,0.679-1.115c3.956-2.234,7.884-4.505,11.82-6.763
		c1.209-0.693,1.524-0.688,2.737,0.002c3.798,2.161,7.588,4.328,11.403,6.469c0.639,0.358,0.944,0.768,0.94,1.436
		c-0.019,3.585-0.003,7.168,0.01,10.752c0.003,0.973-0.002,1.946,0.061,2.918c0.059,0.916-0.364,1.518-1.263,2.021
		c-3.984,2.229-7.936,4.508-11.896,6.767C16.594,33.66,16.176,33.66,15.759,33.66z"/>
	<path fill="#C7DFD9" d="M21.315,22.751c-0.337,0.179-0.674,0.356-1.023,0.543c0.459,0.226,1.049-0.399,1.21-0.039
		c0.191,0.433-0.195,0.957-0.521,1.384c-0.11,0.146-0.262,0.271-0.395,0.403c-0.312,0.117-0.629,0.209-0.976,0.197
		c-0.14-0.009-0.273-0.037-0.4-0.095c-0.265-0.194-0.413-0.47-0.629-0.699c0.056-0.676-0.206-0.862-1.122-0.702
		c-0.617,0.108-1.204,0.243-1.739-0.168c-0.148-0.135-0.234-0.299-0.297-0.473c-0.045-0.326-0.321-0.559-0.471-0.844
		c-0.023-0.11,0-0.213,0.089-0.301c0.332-0.168,0.559,0.041,0.791,0.181c0.277,0.17,0.568,0.256,0.91,0.196
		c0.681,0.086,1.318-0.353,2.012-0.125c0.266,0.388-0.309,0.373-0.39,0.603c0.442,0.038,0.642-0.274,0.923-0.464
		c0.521-0.17,0.511-0.625,0.707-0.973c0.323-0.143,0.403,0.103,0.505,0.261c0.113,0.181,0.215,0.353,0.479,0.394
		C21.316,22.193,21.539,22.395,21.315,22.751z"/>
	<path fill="#BDD8CF" d="M20.387,12.294c0.142,0.291,0.285,0.583,0.428,0.874c0.09,0.287-0.016,0.428-0.378,0.356
		c-0.255-0.051-0.45-0.193-0.641-0.339c-0.608-0.667-1.359-0.582-2.148-0.297c-0.771,0.043-1.514,0.157-2.196,0.501
		c-0.348,0.175-0.749,0.199-1.095-0.012c-0.513-0.313-0.945-0.154-1.366,0.125c-0.327,0.218-0.628,0.482-1.005,0.615
		c-0.275,0.096-0.789,0.373-0.688-0.289c0.424-0.356,0.85-0.716,1.273-1.073c0.772-0.417,1.573-0.794,2.375-1.165
		c0.732-0.338,1.547-0.369,2.337-0.205c0.802,0.167,1.617,0.292,2.405,0.518C19.973,11.964,20.208,12.091,20.387,12.294z"/>
	<path fill="#C7DED8" d="M11.113,22.271c-0.184-0.259-0.068-0.505,0.042-0.752c0.572-0.786,0.813-1.663,0.941-2.568
		c0.353-0.854,0.486-1.769,0.953-2.6c-0.807,0.709-0.63,1.675-0.939,2.509c-0.063,0.179-0.099,0.362-0.184,0.535
		c-0.33,0.274-0.425,0.784-1.045,0.769c-0.55-0.326-0.252-0.729-0.136-1.117c0.053-0.537,0.84-0.903,0.485-1.537
		c0.059-0.466,0.828-0.714,0.54-1.29c0.495-0.408,0.935-0.883,1.664-1.008c0.419,0.023,0.657,0.234,0.782,0.561
		c0.043,0.286-0.188,0.495-0.285,0.742c-0.152,0.466-0.363,0.917-0.433,1.4c-0.02,0.278-0.04,0.553-0.253,0.785
		c-0.638,0.623-0.393,1.402-0.515,2.116c-0.252,0.537-0.548,1.054-0.994,1.496c-0.076,0.045-0.161,0.069-0.253,0.08
		C11.343,22.39,11.214,22.358,11.113,22.271z"/>
	<path fill="#5E897B" d="M20.782,22.137c-0.146,0.103-0.312,0.183-0.355-0.062c-0.05-0.273-0.136-0.521-0.371-0.719
		c-0.075-0.044-0.133-0.104-0.172-0.175c-0.092-0.185-0.131-0.374-0.073-0.572c0.112-0.313,0.339-0.646,0.285-0.94
		c-0.076-0.41,0.689-0.213,0.496-0.66c-0.153-0.35-0.066-0.75-0.054-1.125c0.01-0.272-0.017-0.566,0.321-0.738
		c0.456-0.041,0.813,0.146,1.156,0.367c0.16,0.708-0.54,0.061-0.685,0.346c0.046,0.498,0.517,0.872,0.682,1.355
		c-0.202,0.181-0.499,0.291-0.588,0.552c-0.086,0.247-0.162,0.554,0.135,0.688c0.278,0.125,0.267-0.281,0.489-0.336
		c0.413,0.631-0.039,1.243-0.047,1.864C21.563,21.843,21.146,21.832,20.782,22.137z"/>
	<path fill="#BAD3CC" d="M19.108,25.033c0.144,0.01,0.287,0.018,0.429,0.025c0.04,0.068,0.035,0.139-0.019,0.203
		c-0.347,0.26-0.77,0.31-1.205,0.318c-0.127-0.021-0.242-0.072-0.352-0.127c-0.331-0.193-0.705-0.225-1.091-0.203
		c-0.326,0.004-0.649,0.018-0.975,0.01c-0.738-0.022-1.474,0.027-2.207,0.093c-0.314-0.005-0.584-0.116-0.834-0.269
		c-0.15-0.131-0.195-0.26,0.054-0.332c0.211-0.063,0.554-0.021,0.527-0.287c-0.031-0.33-0.424-0.153-0.644-0.231
		c-0.16-0.056-0.33-0.091-0.526-0.142c0.37-0.567,1.142,0.005,1.516-0.436c0.609-0.154,1.097,0.133,1.607,0.331
		c0.221,0.103,0.438,0.218,0.65,0.329c0.481,0.34,1.013,0.047,1.518,0.087c0.167,0.005,0.329,0.026,0.477,0.099
		C18.258,24.88,18.778,24.816,19.108,25.033z"/>
	<path fill="#497D6D" d="M19.652,12.103c-0.805-0.181-1.604-0.388-2.418-0.534c-0.973-0.173-1.877,0.018-2.739,0.452
		c-0.604,0.304-1.136,0.776-1.923,0.735c-0.071-0.003-0.143-0.006-0.215-0.011c0.174-0.769,0.948-0.968,1.628-1.226
		c0.356-0.136,0.723-0.197,0.886-0.561c0.2-0.451,0.63-0.513,1.1-0.366c0.505,0.157,1.015,0.276,1.554,0.301
		c0.403,0.08,0.809,0.154,1.189,0.296C19.052,11.472,19.907,11.368,19.652,12.103z"/>
	<path fill="#B5D5CB" d="M17.556,11.062c-0.382,0.013-0.758,0.029-1.128-0.108c-0.604-0.224-1.289-0.646-1.441,0.404
		c-0.03,0.215-0.378,0.222-0.597,0.261c-0.847,0.157-1.484,0.582-2.036,1.125c-0.214,0-0.579,0.1-0.335-0.275
		c0.301-0.467,0.427-1.016,0.887-1.407c0.115-0.108,0.267-0.119,0.401-0.067c0.709,0.272,0.795-0.03,0.679-0.529
		c0.26-0.161,0.567-0.166,0.868-0.191c0.284-0.189,0.617-0.135,0.938-0.144c0.095,0.009,0.185,0.027,0.274,0.049
		c0.338,0.087,0.702,0.089,1.027,0.221C17.416,10.531,17.766,10.653,17.556,11.062z"/>
	<path fill="#B1D0C7" d="M10.91,16.588c0.097-0.751-0.278-1.623,0.737-2.141c0.349-0.342,0.799-0.58,1.202-0.867
		c0.641-0.453,1.311-0.25,1.963,0.014c0.157,0.549-0.409,0.584-0.748,0.783c-1.162,0.131-1.605,1.036-2.349,1.618
		c-0.129,0.1-0.181,0.261-0.279,0.387C11.3,16.519,11.173,16.684,10.91,16.588z"/>
	<path fill="#387461" d="M14.867,13.694c-0.962-0.331-1.81-0.284-2.512,0.474c-0.144,0.156-0.468,0.188-0.708,0.279
		c-0.074-0.223-0.905-0.131-0.352-0.618c0.019,0.567,0.362,0.317,0.609,0.162c0.477-0.297,0.93-0.623,1.393-0.937
		c0.318-0.216,0.653-0.262,0.949,0.007c0.404,0.369,0.854,0.342,1.277,0.096c0.682-0.397,1.429-0.441,2.205-0.406
		c0.351-0.023,0.72,0.014,0.692,0.385c-0.02,0.274-0.393,0.251-0.648,0.271c-0.408,0.035-0.832-0.031-1.229,0.098
		C15.984,13.565,15.477,13.967,14.867,13.694z"/>
	<path fill="#C5DDD6" d="M21.287,14.762c0.441,0.451,0.82,0.911,0.373,1.521c-0.576,0.296-0.834-0.1-1.146-0.386
		c-0.159-0.58-0.913-0.917-0.879-1.576c0.097-0.139,0.243-0.214,0.419-0.25C20.562,14.175,21.032,14.327,21.287,14.762z"/>
	<path fill="#518172" d="M15.396,24.144c-0.539-0.162-1.076-0.325-1.615-0.488l0.011,0.018c-0.586-0.44-1.281-0.379-1.976-0.313
		c-0.819-0.083-0.362-0.776-0.703-1.088c0.104,0.011,0.208,0.019,0.313,0.028c0.21,0.133,0.395,0.298,0.695,0.271
		c0.956-0.084,1.759,0.284,2.561,0.654c0.285,0.173,0.579,0.332,0.907,0.44c0.192,0.101,0.441,0.207,0.326,0.433
		C15.811,24.292,15.58,24.203,15.396,24.144z"/>
	<path fill="#639082" d="M18.278,25.492c0.399-0.102,0.797-0.203,1.195-0.305c0.271-0.082,0.541-0.115,0.799,0.031
		c-0.076,0.098-0.149,0.195-0.225,0.291c-0.887,0.47-1.925,0.447-2.896,0.621c-0.427,0.078-0.035,0.218-0.129,0.283
		c-0.573,0.215-1.09-0.065-1.629-0.146c0.006-0.507,0.518-0.526,0.887-0.683C16.94,25.443,17.603,25.375,18.278,25.492z"/>
	<path fill="#9BC7BA" d="M17.023,26.417c-0.129-0.059-0.257-0.117-0.518-0.233c1.201-0.403,2.371-0.542,3.543-0.672
		c-0.058,0.448-0.485,0.544-0.873,0.61C18.464,26.25,17.74,26.321,17.023,26.417z"/>
	<path fill="#9CC2B6" d="M20.601,15.82c0.35,0.163,0.563,0.551,1.06,0.462c0.118,0.412,0.237,0.821,0.356,1.231
		c-0.447,0.083-0.769-0.129-1.092-0.337c-0.496-0.286-0.612-0.835-1.07-1.148c-0.037-0.064-0.044-0.131-0.022-0.2
		C20.084,15.606,20.344,15.736,20.601,15.82z"/>
	<path fill="#9ED0C0" d="M15.061,9.993c0.963-0.201,1.926-0.232,2.902-0.055c0.44,0.082,0.711,0.234,0.674,0.651
		c-0.044,0.369-0.389,0.327-0.563,0.198c-0.634-0.473-1.433-0.333-2.145-0.5l0.011,0.005C15.724,10.027,15.178,10.474,15.061,9.993z
		"/>
	<path fill="#6D9186" d="M15.931,10.287c0.796,0.046,1.683-0.296,2.331,0.416c0.08,0.087,0.274-0.007,0.375-0.113
		c0.258,0.006,0.506,0.046,0.72,0.183c0.29,0.661-0.3,0.534-0.701,0.576c-0.367-0.095-0.734-0.191-1.102-0.285
		c-0.012-0.413-0.408-0.43-0.728-0.545C16.535,10.413,16.161,10.56,15.931,10.287z"/>
	<path fill="#DAEAE4" d="M10.91,16.588c0.181-0.052,0.309-0.151,0.375-0.308c0.164-0.096,0.33-0.138,0.503-0.015
		c0.407,0.067,0.479,0.254,0.232,0.524c-0.23,0.25-0.49,0.483-0.736,0.724c0.082,0.195-0.027,0.349-0.167,0.486
		c-0.074,0.074-0.169,0.151-0.297,0.127c-0.142-0.029-0.156-0.14-0.153-0.242c0.012-0.329-0.059-0.663,0.048-0.989
		C10.779,16.794,10.844,16.691,10.91,16.588z"/>
	<path fill="#B7D7CD" d="M22.051,20.119c-0.082,0.252,0.089,0.608-0.321,0.728c-0.208,0.06-0.415-0.095-0.5-0.257
		c-0.203-0.389-0.208-0.789,0.078-1.157c0.167-0.216,0.417-0.274,0.705-0.218C22.026,19.516,22.038,19.817,22.051,20.119z"/>
	<path fill="#96C2B5" d="M18.657,11.348c0.224-0.201,0.8-0.084,0.699-0.576c0.796,0.282,1.156,0.78,1.029,1.523
		c-0.245-0.063-0.488-0.127-0.735-0.191C19.647,11.535,18.955,11.631,18.657,11.348z"/>
	<path fill="#B5D8CE" d="M16.247,25.785c-0.342,0.086-0.646,0.225-0.854,0.484c-0.698,0.289-1.009-0.491-1.623-0.436
		c-0.056-0.084-0.043-0.158,0.035-0.228c0.442-0.209,0.934-0.243,1.42-0.298C15.632,25.362,16.185,25.184,16.247,25.785z"/>
	<path fill="#8FBDAE" d="M19.85,13.054c0.337-0.066,0.529,0.781,0.964,0.114c0.275,0.397,0.602,0.774,0.655,1.257
		c-0.912,0.12-1.333-0.53-1.93-0.905c-0.046-0.062-0.076-0.129-0.089-0.201c0.01-0.114,0.069-0.207,0.172-0.279
		C19.701,13.004,19.778,13.008,19.85,13.054z"/>
	<path fill="#68887D" d="M10.714,16.896c0,0.367,0,0.734,0,1.148c0.359-0.129,0.434-0.352,0.57-0.53
		c0.562,0.034,0.396,0.341,0.245,0.567c-0.226,0.34-0.52,0.646-0.783,0.967C10.555,18.333,10.371,17.617,10.714,16.896z"/>
	<path fill="#508372" d="M12.172,18.899c-0.003,0.97,0.063,1.958-1.019,2.62c-0.532-0.075-0.487-0.324-0.255-0.63
		c0.37,0.11,0.331-0.183,0.431-0.328c0.251-0.375,0.23-0.827,0.469-1.206c0.076-0.15,0.153-0.3,0.229-0.449
		C12.071,18.851,12.121,18.849,12.172,18.899z"/>
	<path fill="#91BDAF" d="M20.782,22.137c0.341-0.437,0.669-0.951,1.221-0.153c0.073,0.454-0.041,0.787-0.688,0.768
		C21.237,22.484,21.218,22.177,20.782,22.137z"/>
	<path fill="#9BC6BA" d="M11.797,19.355c0.139,0.652-0.167,1.206-0.532,1.742c-0.049,0.07-0.175,0.102-0.265,0.15
		c-0.034-0.119-0.066-0.24-0.102-0.359c0.265-0.246,0.292-0.488-0.019-0.725C11.187,19.895,11.491,19.625,11.797,19.355z"/>
	<path fill="#8CB8AB" d="M11.816,23.358c1.051-0.444,1.323-0.401,1.976,0.313C13.124,23.61,12.409,23.766,11.816,23.358z"/>
	<path fill="#97BAAF" d="M13.986,10.466c0.036,0.251,0.62,0.317,0.33,0.665c-0.296,0.357-0.652,0.184-0.999,0.038
		c-0.126-0.053-0.271-0.072-0.407-0.106C13.149,10.706,13.554,10.569,13.986,10.466z"/>
	<path fill="#618E80" d="M19.51,13.372c0.698,0.29,1.118,0.961,1.96,1.052c-0.061,0.113-0.122,0.225-0.182,0.337
		c-0.412-0.208-0.825-0.417-1.237-0.623c-0.35-0.091-0.667-0.217-0.771-0.561C19.301,13.465,19.382,13.4,19.51,13.372z"/>
	<path fill="#76AA9A" d="M13.778,25.656c-0.002,0.059-0.005,0.119-0.007,0.18c-0.651,0.063-0.918-0.221-0.915-0.75
		c0.276-0.058,0.526-0.008,0.76,0.123C13.771,25.33,13.819,25.481,13.778,25.656z"/>
	<path fill="#64A691" d="M15.061,9.993c0.208,0.284,0.681,0,0.88,0.299c-0.363-0.006-0.726-0.011-1.089-0.017
		C14.88,10.159,14.864,10.017,15.061,9.993z"/>
	<path fill="#659082" d="M20.274,25.218c-0.267-0.01-0.532-0.02-0.799-0.03c0.022-0.043,0.044-0.085,0.063-0.131
		c0.35-0.005,0.698-0.011,1.048-0.017C20.526,25.16,20.41,25.203,20.274,25.218z"/>
	<path fill="#DCEBE6" d="M20.054,21.207c0.004,0.049,0.005,0.101,0.001,0.15c0.007,0.488,0.126,1.032-0.737,1.084
		c-0.217,0.068-0.371-0.016-0.502-0.152c-0.484-0.063-0.925,0.114-1.373,0.213c-0.283,0.063-0.51,0.078-0.741-0.07
		c-0.618,0.004-0.94-0.381-1.243-0.746c-0.744-0.893-1.228-1.889-1.526-2.954c-0.062-0.688-0.012-1.354,0.489-1.937
		c0.065-0.051,0.144-0.08,0.232-0.083c0.341,0.115,0.112,0.809,0.796,0.576c0.086,0.018,0.146,0.061,0.189,0.125
		c0.065,0.373-0.137,0.715-0.171,1.074c-0.075,0.756-0.066,1.49,0.668,2.049c0.335,0.239,0.512-0.177,0.798-0.146
		c0.478,0.374,1.285,0.3,1.628,0.589C19.101,21.433,19.581,21.091,20.054,21.207z"/>
	<path fill="#4A7E6D" d="M13.072,18.591c0.232-0.225,0.061-0.521,0.183-0.766c0.404,0,0.368,0.283,0.399,0.49
		c0.067,0.457,0.192,0.904,0.293,1.354c0.135,0.814,0.57,1.519,1.083,2.197c0.007,0.035,0.016,0.072,0.02,0.108
		c-0.003,0.101-0.008,0.202-0.012,0.304c-1.428,0.068-2.388-0.859-2.307-2.292C12.76,19.516,12.838,19.035,13.072,18.591z"/>
	<path fill="#D7EDE6" d="M13.072,18.591c-0.038,0.604-0.169,1.215-0.096,1.808c0.126,1.039,0.854,1.677,2.063,1.882
		c0.376,0.17,0.597,0.414,0.536,0.799c-0.261,0.147-0.491,0.017-0.73-0.054c-0.639-0.179-1.14-0.56-1.701-0.853
		c-0.731-0.225-0.542-0.78-0.6-1.248C12.606,20.128,12.299,19.269,13.072,18.591z"/>
	<path fill="#94B9AE" d="M15.396,24.144c0.138-0.051,0.395,0.072,0.408-0.123c0.013-0.162-0.224-0.184-0.388-0.213
		c-0.04-0.246,0.059-0.366,0.366-0.303c0.49,0.18,0.959,0.266,1.506,0.066c0.324-0.117,0.752-0.072,1.123-0.031
		c0.292,0.033,0.561,0.23,0.641,0.471c0.079,0.236-0.352,0.222-0.427,0.418c-0.137,0.16-0.298,0.248-0.532,0.156
		c-0.188-0.01-0.375-0.018-0.564-0.023c-0.005-0.105,0.187-0.268-0.161-0.255c-0.484,0.015-0.938,0.229-1.433,0.126
		C15.755,24.337,15.577,24.242,15.396,24.144z"/>
	<path fill="#64897D" d="M14.119,18.753c0.579,1.371,1.07,2.787,2.582,3.678c-0.357,0.309-0.635,0.029-0.916-0.104
		c-0.246-0.117-0.396-0.379-0.735-0.351l-0.011,0.004c-0.486-0.754-0.948-1.517-1.185-2.36c-0.083-0.184-0.062-0.373-0.057-0.563
		C13.834,18.898,13.864,18.738,14.119,18.753z"/>
	<path fill="#718F85" d="M18.816,22.289c0.168,0.051,0.334,0.103,0.502,0.152c-0.24,0.702-0.878,0.625-1.558,0.604
		C17.89,22.505,18.575,22.625,18.816,22.289z"/>
	<path fill="#799C91" d="M15.782,23.507c-0.178,0.05-0.31,0.144-0.367,0.301c-0.286-0.104-0.592-0.184-0.732-0.457
		c-0.182-0.23-0.524-0.51,0.187-0.492c0.235,0.075,0.471,0.146,0.705,0.221C15.643,23.22,15.713,23.365,15.782,23.507z"/>
	<path fill="#6B8F83" d="M18.093,24.587c0.177-0.051,0.354-0.104,0.532-0.155c0.425,0.046,0.646,0.209,0.483,0.603
		C18.774,24.876,18.005,25.451,18.093,24.587z"/>
	<path fill="#5B8879" d="M19.51,13.372c-0.078,0.059-0.157,0.117-0.234,0.175c-0.95,0.085-1.901,0.174-2.807-0.206
		c0.569-0.301,1.223,0,1.828-0.183c-0.034-0.307-0.381-0.277-0.567-0.408c1.031-0.458,1.456-0.398,2.121,0.305
		c-0.053-0.002-0.103,0.003-0.152,0.016c-0.088,0.081-0.427,0.049-0.169,0.281L19.51,13.372z"/>
	<path fill="#598375" d="M15.676,12.748c-0.233-0.004-0.472-0.012-0.439-0.269c0.032-0.244,0.262-0.325,0.522-0.326
		c0.214-0.001,0.5,0.02,0.497,0.224C16.251,12.65,15.92,12.69,15.676,12.748z"/>
	<path fill="#E5F1EE" d="M16.469,13.341c0.936,0.071,1.891-0.063,2.806,0.206c0.229,0.227,0.633,0.284,0.775,0.592
		c-0.082,0.122-0.218,0.151-0.368,0.161c-0.041,0.003-0.083,0.005-0.124,0.008c-0.519-0.035-0.934-0.308-1.409-0.448
		c-0.899-0.265-1.136-0.182-1.568,0.561c-0.066,0.114-0.204,0.183-0.319,0.261c-0.409,0.312-0.854,0.599-1.083,1.048
		c-0.081,0.167-0.083,0.345-0.097,0.521c-0.068,0.204,0.02,0.504-0.403,0.49l0.013,0.005c-0.334-0.236-0.104-0.712-0.524-0.913
		c-0.261-0.162-0.359-0.52-0.786-0.482c-0.131-0.495,0.26-0.771,0.604-1.066c0.292-0.197,0.586-0.395,0.879-0.593
		C15.402,13.576,15.935,13.459,16.469,13.341z"/>
	<path fill="#6C8F83" d="M13.989,14.287c-0.003,0.438-0.484,0.676-0.605,1.066c-0.612,0.201-0.921,0.791-1.594,0.914
		c-0.169,0.005-0.335,0.01-0.503,0.015c0.455-0.836,1.355-1.332,2.057-1.978C13.551,14.108,13.77,14.197,13.989,14.287z"/>
	<path fill="#B3D2C9" d="M14.869,22.858c-0.462,0.052-0.15,0.319-0.187,0.492c-0.974-0.233-1.84-0.833-2.977-0.526
		c-0.368,0.1-0.147-0.355-0.282-0.525c0.078-0.008,0.157-0.016,0.236-0.022c0.471-0.315,1.067-0.134,1.578-0.297
		C13.772,22.287,14.252,22.667,14.869,22.858z"/>
	<path fill="#698D81" d="M14.167,15.833c0.202-0.015,0.524-0.344,0.525,0.15c0.001,0.254-0.001,0.509-0.002,0.762
		c-0.514,0.601-0.638,1.286-0.571,2.006c-0.058,0.109-0.113,0.217-0.169,0.328c-0.642-0.447-0.279-1.063-0.337-1.601
		c-0.036-0.337,0.07-0.695,0.141-1.042C13.892,16.237,14.031,16.036,14.167,15.833z"/>
	<path fill="#73958A" d="M12.172,18.899c-0.048,0.002-0.098,0.004-0.146,0.009c-0.046-0.672,0.097-1.326,0.321-1.958
		c0.163-0.458,0.457-0.866,1.358-1.009C12.656,16.867,12.959,18.063,12.172,18.899z"/>
	<path fill="#ABCCC2" d="M13.756,16.439c0.179,0.874-0.155,1.775,0.196,2.643c0.015,0.191,0.029,0.383,0.046,0.576
		c0.039,0.157-0.041,0.207-0.213,0.168c-0.424-0.619-0.073-1.387-0.531-2C13.422,17.365,13.587,16.901,13.756,16.439z"/>
	<path fill="#548272" d="M13.239,21.98c-0.438,0.441-1.042,0.234-1.578,0.296c0.306-0.444,0.448-0.967,0.882-1.353
		c0.278,0.097,0.282,0.283,0.215,0.492C12.646,21.776,12.881,21.917,13.239,21.98z"/>
	<path fill="#DCEBE6" d="M15.559,17.354c-0.052,0.004-0.1,0.006-0.151,0.008c-0.153-0.783,0.185-1.395,0.877-1.595
		c0.729-0.21,1.666,0.115,2.049,0.716c0.142,0.222,0.209,0.476,0.358,0.694c0.129,0.188,0.277,0.27,0.459,0.041
		c0.063-0.086,0.14-0.164,0.243-0.217c0.604-0.175,0.318-0.672,0.493-1.001c0.709,0.157,0.771,0.734,1.037,1.178
		c-0.262,0.605,0.006,1.259-0.191,1.842c-0.194,0.579-0.428,1.176-0.854,1.683c-0.488-0.068-0.68-0.373-0.719-0.738
		c-0.043-0.398-0.338-0.223-0.564-0.229c-0.306-0.1-0.206-0.33-0.214-0.52c-0.021-0.33-0.22-0.469-0.577-0.381
		c-0.363,0.088-0.341,0.31-0.156,0.531c0.174,0.209,0.251,0.41-0.019,0.598c-0.258,0.178-0.501,0.068-0.726-0.064
		c-0.29-0.172-0.592-0.332-0.818-0.57c-0.053-0.063-0.091-0.129-0.12-0.201C15.85,18.531,15.714,17.941,15.559,17.354z"/>
	<path fill="#719388" d="M18.611,19.689c0.186-0.145,0.368-0.288,0.663-0.518c0.007,0.631-0.008,1.193,0.605,1.531
		c0.058,0.168,0.117,0.336,0.175,0.504c-0.243-0.035-0.376,0.104-0.521,0.234c-0.341,0.311-0.681,0.648-0.757-0.145
		c-0.023-0.254-0.31-0.31-0.547-0.275c-0.632,0.087-1.065-0.143-1.398-0.57c-0.046-0.064-0.048-0.13-0.007-0.197
		C17.501,20.255,18.125,20.134,18.611,19.689z"/>
	<path fill="#8AB4A7" d="M16.247,25.785c-0.218-0.43-0.678-0.214-1.03-0.283c0.001-0.418,0.515-0.232,0.699-0.435
		c0.369,0,0.737,0,1.106,0c0.313,0.245,0.764,0.103,1.098,0.288c0.054,0.045,0.104,0.091,0.157,0.137
		C17.635,25.757,16.904,25.583,16.247,25.785z"/>
	<path fill="#679184" d="M15.915,25.066c-0.085,0.318-0.525,0.219-0.699,0.436c-0.479,0.051-0.958,0.103-1.438,0.152
		c-0.2-0.109-0.165-0.281-0.164-0.445C14.364,24.943,15.147,25.076,15.915,25.066z"/>
	<path fill="#5E8B7D" d="M15.935,24.433c0.485-0.18,0.977-0.346,1.521-0.303c0.189,0.019,0.457-0.035,0.473,0.199
		c0.005,0.07-0.257,0.154-0.399,0.231C16.996,24.529,16.414,24.955,15.935,24.433z"/>
	<path fill="#649182" d="M18.12,25.355c-0.312-0.003-0.622-0.008-0.933-0.006c-0.284,0.002-0.242-0.133-0.167-0.283
		C17.432,25.042,17.822,25.069,18.12,25.355z"/>
	<path fill="#6C897F" d="M20.601,15.82c-0.243,0.163-0.474-0.04-0.712-0.017c-0.08-0.046-0.141-0.104-0.186-0.179
		c-0.114-0.314-0.362-0.583-0.45-0.898c-0.075-0.267-0.115-0.591,0.436-0.424L19.68,14.3C19.847,14.87,20.606,15.174,20.601,15.82z"
		/>
	<path fill="#A9C8BE" d="M19.879,15.671c0.013,0.043,0.016,0.087,0.011,0.132c0,0.065-0.001,0.129-0.001,0.196
		c0.284,0.763,0.252,0.851-0.384,1.06c-0.226-0.193-0.251-0.458-0.344-0.7c-0.046-0.194-0.073-0.394,0.004-0.581
		C19.322,15.398,19.558,15.308,19.879,15.671z"/>
	<path fill="#85B2A4" d="M19.53,13.353c-0.147-0.061-0.438-0.097-0.375-0.23c0.077-0.167,0.355-0.034,0.544-0.051
		C19.641,13.165,19.586,13.259,19.53,13.353z"/>
	<path fill="#417966" d="M19.314,17.249c0.015,0.2,0.095,0.436-0.226,0.508c-0.251,0.056-0.368-0.129-0.468-0.281
		c-0.133-0.2-0.279-0.4-0.35-0.618c-0.225-0.7-0.792-0.995-1.582-0.997c-0.797,0-1.002,0.519-1.161,1.058
		c-0.042,0.147-0.079,0.294-0.119,0.442c-0.158,0.035-0.178,0.311-0.383,0.215c-0.383-0.182-0.37-0.515-0.346-0.835
		c0.274-0.146,0.146-0.396,0.207-0.596c0.547-0.508,1.282-0.712,2.021-0.896c0.432-0.109,0.81,0.047,1.162,0.26
		c0.227,0.136,0.393,0.418,0.759,0.259c0.088-0.007,0.168,0.009,0.241,0.048c0.221,0.178,0.16,0.418,0.194,0.637
		C19.423,16.711,19.229,16.987,19.314,17.249z"/>
	<path fill="#648278" d="M16.115,20.748c-0.925-0.59-1-1.418-0.882-2.303c0.309-0.043,0.375,0.17,0.485,0.338
		c0.139,0.545,0.269,1.088,0.652,1.564C16.535,20.552,16.696,20.85,16.115,20.748z"/>
	<path fill="#9FBFB4" d="M16.115,20.748c0.368-0.025,0.276-0.147,0.104-0.317c-0.488-0.483-0.656-1.063-0.653-1.688
		c0.482-0.109,0.367,0.316,0.563,0.463l-0.013-0.002c0.205,0.379,0.452,0.736,0.692,1.1c0.013,0.049,0.021,0.099,0.021,0.148
		C16.644,20.638,16.617,21.115,16.115,20.748z"/>
	<path fill="#8AA29A" d="M16.13,19.205c-0.188-0.154-0.373-0.308-0.563-0.461c-0.109-0.101-0.221-0.199-0.332-0.297
		c0.108-0.363,0.217-0.729,0.325-1.092C16.126,17.884,16.108,18.548,16.13,19.205z"/>
	<path fill="#88B2A5" d="M13.785,19.826c0.07-0.057,0.141-0.113,0.213-0.168c0.244,0.809,0.938,1.467,1.042,2.323
		C14.254,21.419,13.959,20.648,13.785,19.826z"/>
	<path fill="#C8DDD6" d="M19.183,16.44c-0.075-0.204-0.148-0.411-0.224-0.616c-0.378-0.322-0.735-0.675-1.301-0.764
		c-0.083-0.016-0.166-0.035-0.248-0.056c-0.424-0.15-1.009,0.077-1.291-0.403c-0.056-0.196,0.789-0.184,0.156-0.543
		c-0.153-0.087,0.119-0.255,0.253-0.315c0.545-0.236,1.108-0.31,1.685-0.067c0.491,0.207,0.983,0.415,1.476,0.623
		c-0.571,0.004-0.351,0.266-0.201,0.481c0.194,0.278,0.434,0.536,0.39,0.889c-1.01-0.173-0.353,0.506-0.526,0.759
		C19.299,16.484,19.242,16.485,19.183,16.44z"/>
	<path fill="#8BBAAB" d="M17.546,14.901c0.063,0.001,0.126,0.003,0.188,0.005c0.333,0.324,1.018,0.35,1.069,0.917
		c-0.064,0.113-0.024,0.501-0.229,0.283c-1.132-1.216-2.231-0.547-3.357-0.051c-0.101,0.045-0.22,0.061-0.331,0.091
		c-0.022-0.173-0.059-0.348,0.131-0.477C15.661,14.929,16.558,14.804,17.546,14.901z"/>
	<path fill="#457D6A" d="M17.546,14.901c-0.908,0.096-1.754,0.348-2.53,0.768c0.176-0.501,0.583-0.828,1.104-1.066
		C16.559,14.827,17.119,14.631,17.546,14.901z"/>
	<path fill="#4B7A6A" d="M16.811,20.302c-0.684-0.155-0.686-0.629-0.693-1.1c0.354,0.223,0.708,0.446,1.062,0.668
		c0.168,0.105,0.334,0.109,0.459-0.039c0.119-0.144,0.009-0.232-0.144-0.281c-0.476-0.15-0.428-0.459-0.256-0.741
		c0.224-0.369,0.651-0.267,1.026-0.233c0.501,0.043,0.334,0.383,0.386,0.639c0.034,0.168-0.271,0.304-0.039,0.474
		C18.297,20.513,17.611,20.533,16.811,20.302z"/>
	<path fill="#749489" d="M17.092,16.918c-0.296,0.192-0.054,0.751-0.486,0.816c-0.337,0.051-0.444-0.343-0.386-0.629
		c0.059-0.293,0.262-0.505,0.642-0.517C17.091,16.577,17.18,16.677,17.092,16.918z"/>
	<path fill="#AFBFBA" d="M17.872,17.976c-0.21-0.303-0.18-0.549-0.063-0.858C18.311,17.396,18.283,17.641,17.872,17.976z"/>
	<path fill="#D6E6E1" d="M19.183,16.44c0.058-0.002,0.113-0.005,0.168-0.009c0.237,0.177,0.145,0.411,0.154,0.628
		c-0.063,0.063-0.126,0.125-0.189,0.188C19.059,17.006,19.124,16.722,19.183,16.44z"/>
	<path fill="#4A806E" d="M18.804,15.824c-0.238-0.409-0.902-0.448-1.069-0.917c0.645,0.072,1.104,0.329,1.224,0.918
		C18.907,15.825,18.855,15.824,18.804,15.824z"/>
</g>
<g>
	<path fill="#FFFFFF" stroke="#000000" stroke-miterlimit="10" d="M57.484,8.161c0-0.971-0.672-1.457-2.019-1.457
		c-2.571,0-4.906,1.023-7.005,3.069c-1.238,1.203-2.107,2.504-2.604,3.902c-0.243,0.683-0.363,1.284-0.363,1.804
		c0,0.521,0.07,0.935,0.212,1.241c0.142,0.307,0.319,0.557,0.536,0.753c0.458,0.417,0.988,0.577,1.594,0.485
		c0.66-0.232,1.242-0.349,1.747-0.349s0.91,0.056,1.212,0.165c0.303,0.109,0.549,0.246,0.738,0.408
		c0.39,0.322,0.585,0.635,0.585,0.936c0,0.59-0.229,0.896-0.688,0.92c-0.7,0.058-1.435,0.226-2.201,0.502
		c-0.767,0.277-1.541,0.639-2.32,1.084c-0.782,0.445-1.476,0.945-2.08,1.5c-1.386,1.271-2.079,2.551-2.079,3.834
		c0,0.612,0.168,1.074,0.505,1.385c0.564,0.547,1.238,0.816,2.019,0.816c0.781,0,1.544-0.129,2.292-0.391
		c0.748-0.26,1.424-0.574,2.03-0.945c0.914-0.566,1.805-1.289,2.665-2.168c0.43-0.439,0.808-0.658,1.13-0.658
		c0.325,0,0.568,0.164,0.738,0.494c0.168,0.329,0.252,0.68,0.252,1.049c0,0.764-0.17,1.326-0.505,1.69
		c-0.337,0.362-0.757,0.729-1.263,1.093c-0.505,0.363-1.106,0.702-1.807,1.016c-1.684,0.74-3.486,1.109-5.412,1.109
		c-3.243,0-5.464-0.914-6.663-2.74c-0.43-0.683-0.645-1.383-0.645-2.1s0.124-1.381,0.373-1.992c0.25-0.613,0.567-1.184,0.958-1.709
		c0.39-0.525,0.829-1,1.313-1.422c0.485-0.421,0.962-0.789,1.435-1.102c0.929-0.625,1.695-0.977,2.301-1.057
		c-1.521-0.521-2.542-1.533-3.068-3.036c-0.161-0.485-0.243-1.075-0.243-1.769c0-0.693,0.155-1.458,0.466-2.297
		c0.31-0.839,0.747-1.643,1.312-2.411c0.565-0.77,1.238-1.489,2.02-2.159c0.779-0.67,1.643-1.253,2.583-1.752
		c2.032-1.063,4.172-1.596,6.421-1.596c2.355,0,4.111,0.503,5.27,1.51c0.929,0.809,1.395,1.843,1.395,3.104
		c0,1.433-0.699,2.884-2.101,4.353c-0.847,0.879-1.612,1.475-2.292,1.787c-0.68,0.313-1.211,0.483-1.595,0.512
		c-0.384,0.03-0.74-0.012-1.07-0.121c-0.329-0.109-0.616-0.257-0.857-0.443c-0.553-0.426-0.829-0.815-0.829-1.161
		c0-0.427,0.175-0.757,0.523-0.988l1.817-1.11C56.394,10.375,57.484,9.178,57.484,8.161z"/>
	<path fill="#FFFFFF" stroke="#000000" stroke-miterlimit="10" d="M62.109,21.914c-0.768,0-1.149-0.254-1.149-0.764
		c0-0.463,0.192-0.896,0.585-1.301c0.7-0.729,1.246-1.081,1.636-1.057h9.329c0.592,0,0.888,0.23,0.888,0.692
		c0,0.483-0.194,0.931-0.585,1.336c-0.686,0.729-1.278,1.093-1.775,1.093H62.109z"/>
	<path fill="#FFFFFF" stroke="#000000" stroke-miterlimit="10" d="M80.452,29.632c-0.304-0.498-0.528-1.026-0.679-1.588
		c-0.147-0.561-0.221-1.149-0.221-1.769c0-0.618,0.124-1.437,0.372-2.455c0.25-1.019,0.589-2.089,1.02-3.218
		c0.432-1.126,0.932-2.279,1.505-3.458c0.57-1.18,1.182-2.331,1.826-3.452c1.319-2.335,2.632-4.358,3.938-6.069h-0.223
		c-1.604,0-3.089,0.312-4.462,0.936c-0.338,0.219-0.66,0.329-0.97,0.329c-0.646,0-1.271-0.272-1.879-0.815
		c-1.399-1.272-0.563-2.324,2.504-3.156c1.44-0.405,2.602-0.607,3.481-0.607c0.882,0,1.592,0.118,2.131,0.354
		c0.539,0.238,0.995,0.518,1.374,0.842c0.591,0.509,1.011,1.013,1.262,1.509c0.249,0.497,0.372,0.934,0.372,1.309
		s-0.132,0.879-0.394,1.509c-0.264,0.63-0.598,1.304-0.999,2.021l-1.374,2.289c-0.484,0.797-0.97,1.636-1.454,2.515
		c-0.484,0.879-0.97,1.756-1.454,2.635c-0.485,0.879-0.916,1.734-1.293,2.565c-0.82,1.861-1.23,3.44-1.23,4.733
		c0,0.787,0.087,1.436,0.263,1.943c0.593-0.81,1.318-1.652,2.18-2.531l2.827-2.723c3.271-3.029,5.396-5.041,6.382-6.036
		c2.302-2.324,4.064-4.515,5.29-6.573c0.498-0.821,0.747-1.567,0.747-2.237c0-1.236-0.397-2.168-1.189-2.792
		c-0.283-0.243-0.32-0.538-0.111-0.885c0.209-0.347,0.421-0.606,0.637-0.781c0.525-0.404,1.116-0.606,1.776-0.606
		c0.658,0,1.219,0.117,1.676,0.348c0.458,0.231,0.828,0.525,1.11,0.885c0.578,0.704,0.868,1.582,0.868,2.627
		c0,1.046-0.26,2.153-0.776,3.322c-0.52,1.168-1.198,2.309-2.04,3.424c-0.841,1.116-1.796,2.197-2.866,3.243
		c-1.069,1.047-2.164,2.044-3.28,2.992L91,25.154c-1.843,1.596-3.075,2.688-3.694,3.278c-1.185,1.133-1.944,1.88-2.282,2.237
		c-0.336,0.358-0.639,0.572-0.907,0.643c-0.271,0.068-0.635,0.104-1.091,0.104c-0.458,0-0.926-0.172-1.403-0.52
		C81.145,30.55,80.755,30.128,80.452,29.632z"/>
	<path fill="#FFFFFF" stroke="#000000" stroke-miterlimit="10" d="M103.821,30.099c-0.563-0.463-1.009-1.051-1.333-1.762
		c-0.321-0.711-0.489-1.553-0.505-2.521c-0.014-0.972,0.126-1.954,0.415-2.948c0.29-0.994,0.699-1.955,1.23-2.879
		c0.533-0.924,1.173-1.793,1.92-2.603c0.748-0.809,1.572-1.514,2.474-2.115c1.964-1.295,4.004-1.943,6.116-1.943
		c2.773,0,4.65,1.047,5.633,3.139c0.7,1.516,0.741,3.348,0.121,5.499c-0.563,1.978-1.602,3.791-3.107,5.445
		c-1.494,1.652-3.259,2.825-5.29,3.521c-1.023,0.348-2.029,0.521-3.02,0.521s-1.871-0.111-2.644-0.332
		C105.056,30.903,104.387,30.561,103.821,30.099z M107.678,21.688c-0.404,0.854-0.722,1.733-0.959,2.636
		c-0.236,0.901-0.346,1.756-0.332,2.559c0.015,0.805,0.157,1.435,0.434,1.891c0.275,0.456,0.725,0.686,1.343,0.686
		s1.229-0.185,1.827-0.547c0.6-0.365,1.182-0.849,1.746-1.449c0.564-0.602,1.096-1.295,1.596-2.082
		c0.497-0.785,0.936-1.606,1.313-2.461c0.82-1.863,1.22-3.517,1.189-4.961c0-1.271-0.303-2.082-0.908-2.427
		c-0.243-0.138-0.582-0.208-1.02-0.208c-0.438,0-0.939,0.171-1.505,0.512c-0.564,0.341-1.131,0.801-1.694,1.379
		c-0.564,0.579-1.109,1.254-1.635,2.03C108.546,20.017,108.082,20.833,107.678,21.688z"/>
	<path fill="#FFFFFF" stroke="#000000" stroke-miterlimit="10" d="M134.955,26.734c0.391,0,0.586,0.227,0.586,0.678
		c0,0.381-0.137,0.752-0.405,1.108c-0.365,0.671-1.09,1.308-2.181,1.907c-1.239,0.685-2.483,1.023-3.735,1.023
		c-2.167,0-3.541-0.832-4.118-2.496c-0.688-1.978,0.343-6.168,3.089-12.574c-1.548-0.117-2.389-0.347-2.522-0.692
		c-0.041-0.105-0.062-0.218-0.062-0.339s0.063-0.263,0.191-0.424c0.128-0.163,0.292-0.317,0.494-0.468
		c0.471-0.335,0.95-0.502,1.435-0.502h1.595c1.453-2.925,2.488-4.59,3.108-4.994c0.297-0.184,0.627-0.278,0.99-0.278
		c0.364,0,0.666,0.042,0.91,0.122c0.24,0.081,0.456,0.196,0.644,0.347c0.434,0.348,0.647,0.735,0.647,1.163
		c0,0.232-0.08,0.497-0.243,0.798l-1.494,2.791h0.485c0.834,0,1.507-0.005,2.019-0.016l1.151-0.018
		c0.254-0.012,0.573-0.017,0.958-0.017c0.384,0,0.574,0.122,0.574,0.365c0,1.526-2.1,2.289-6.3,2.289h-0.161l-1.374,3.052
		c-1.548,3.607-2.321,6.134-2.321,7.579c0,0.403,0.106,0.72,0.324,0.944c0.214,0.226,0.617,0.338,1.212,0.338
		c0.592,0,1.131-0.086,1.613-0.26c0.485-0.175,0.908-0.367,1.271-0.582s0.678-0.408,0.938-0.58
		C134.542,26.821,134.768,26.734,134.955,26.734z"/>
	<path fill="#FFFFFF" stroke="#000000" stroke-miterlimit="10" d="M138.246,25.208c0.054-1.006,0.25-1.969,0.584-2.889
		c0.338-0.919,0.788-1.809,1.354-2.67c0.563-0.861,1.228-1.676,1.987-2.445c0.762-0.769,1.587-1.443,2.475-2.021
		c1.923-1.237,3.868-1.855,5.835-1.855c2.303,0,3.836,0.815,4.604,2.446c0.27,0.554,0.396,1.211,0.383,1.969
		c-0.013,0.756-0.18,1.455-0.505,2.098c-0.323,0.642-0.771,1.226-1.342,1.752c-0.572,0.525-1.253,0.996-2.038,1.414
		c-0.786,0.416-1.646,0.769-2.575,1.057c-1.911,0.579-3.957,0.88-6.138,0.9c-0.055,0.162-0.088,0.406-0.102,0.729
		c-0.014,0.324,0.028,0.685,0.121,1.084c0.094,0.399,0.254,0.755,0.485,1.065c0.482,0.693,1.184,1.041,2.1,1.041
		c1.562,0,3.081-0.393,4.563-1.178c0.523-0.267,0.951-0.541,1.281-0.824s0.614-0.426,0.857-0.426s0.454,0.125,0.637,0.375
		c0.184,0.248,0.273,0.527,0.273,0.842c0,0.611-0.202,1.144-0.604,1.595c-1.695,1.455-4.222,2.187-7.571,2.187
		c-1.979,0-3.567-0.51-4.767-1.525C138.796,28.769,138.166,27.197,138.246,25.208z M150.037,15.635
		c-1.415,0-2.773,0.832-4.079,2.498c-1.104,1.435-1.992,3.134-2.665,5.098c2.248-0.195,4.2-0.959,5.854-2.288
		c1.521-1.25,2.281-2.444,2.281-3.59C151.43,16.208,150.966,15.635,150.037,15.635z"/>
</g>
</svg>
